# xmcd CD database file
#
# Track frame offsets:
#	150
#	18539
#	32180
#	50689
#	66258
#	88157
#	107012
#	129361
#	148603
#	168434
#
# Disc length: 2495 seconds
#
# Revision: 0
# Processed by: cddbd v1.5.1PL0 Copyright (c) Steve Scherf et al.
# Submitted via: CDex 1.51
#
DISCID=8c09bd0a
DTITLE=Catherine Duc - Visions And Dreams
DYEAR=2005
DGENRE=New Age
TTITLE0=Essence Of Dreams
TTITLE1=Dancing In The Mist
TTITLE2=Evocation
TTITLE3=One Autumn Day
TTITLE4=Secret Sanctuary
TTITLE5=Heart Of Andalucia
TTITLE6=Midsummer Twilight
TTITLE7=Incense
TTITLE8=Rivulet
TTITLE9=In The Light Of Day
EXTD=YEAR: 2005
EXTT0=
EXTT1=
EXTT2=
EXTT3=
EXTT4=
EXTT5=
EXTT6=
EXTT7=
EXTT8=
EXTT9=
PLAYORDER=
